<svg xmlns="http://www.w3.org/2000/svg" viewBox="0 0 64 64" fill="none"><rect x="4" y="16" width="24" height="36" rx="3" stroke="#059669" stroke-width="2.5"/><line x1="8" y1="24" x2="24" y2="24" stroke="#059669" stroke-width="1.5"/><path d="M10 34h4v4h-4zM18 34h4v4h-4zM10 40h4v4h-4zM18 40h4v4h-4z" stroke="#059669" stroke-width="1"/><rect x="36" y="8" width="24" height="44" rx="3" stroke="#059669" stroke-width="2.5"/><line x1="40" y1="16" x2="56" y2="16" stroke="#059669" stroke-width="1.5"/><path d="M42 24h4v4h-4zM50 24h4v4h-4zM42 30h4v4h-4zM50 30h4v4h-4zM42 36h4v4h-4zM50 36h4v4h-4zM42 42h4v4h-4zM50 42h4v4h-4z" stroke="#059669" stroke-width="1"/></svg>
