<svg xmlns="http://www.w3.org/2000/svg" viewBox="0 0 64 64" width="64" height="64">
    <rect x="6" y="14" width="20" height="40" rx="4" fill="#059669" opacity="0.1"/>
    <rect x="10" y="18" width="12" height="8" rx="2" fill="#059669" opacity="0.3"/>
    <text x="16" y="25" text-anchor="middle" font-size="7" font-weight="700" fill="#059669">30</text>
    <rect x="10" y="30" width="12" height="2" rx="1" fill="#059669" opacity="0.3"/>
    <rect x="10" y="35" width="8" height="2" rx="1" fill="#059669" opacity="0.2"/>
    <rect x="38" y="8" width="20" height="48" rx="4" fill="#3b82f6" opacity="0.1"/>
    <rect x="42" y="12" width="12" height="8" rx="2" fill="#3b82f6" opacity="0.3"/>
    <text x="48" y="19" text-anchor="middle" font-size="7" font-weight="700" fill="#3b82f6">90</text>
    <rect x="42" y="24" width="12" height="2" rx="1" fill="#3b82f6" opacity="0.3"/>
    <rect x="42" y="29" width="12" height="2" rx="1" fill="#3b82f6" opacity="0.3"/>
    <rect x="42" y="34" width="12" height="2" rx="1" fill="#3b82f6" opacity="0.3"/>
    <rect x="42" y="39" width="10" height="2" rx="1" fill="#3b82f6" opacity="0.2"/>
    <path d="M30 32 L36 32" stroke="#6b7280" stroke-width="1.5" stroke-dasharray="2 2"/>
  </svg>