<svg xmlns="http://www.w3.org/2000/svg" viewBox="0 0 64 64" fill="none"><circle cx="20" cy="28" r="14" stroke="#059669" stroke-width="2.5"/><path d="M17 22v4a3 3 0 003 3h0a3 3 0 003-3v0a3 3 0 00-3-3h-2a3 3 0 00-3 3v0a3 3 0 003 3h4" stroke="#059669" stroke-width="2" stroke-linecap="round"/><path d="M20 36v2" stroke="#059669" stroke-width="2" stroke-linecap="round"/><circle cx="48" cy="28" r="14" stroke="#059669" stroke-width="2.5"/><path d="M45 22v4a3 3 0 003 3h0a3 3 0 003-3v0a3 3 0 00-3-3h-2a3 3 0 00-3 3v0a3 3 0 003 3h4" stroke="#059669" stroke-width="2" stroke-linecap="round"/><path d="M48 36v2" stroke="#059669" stroke-width="2" stroke-linecap="round"/><path d="M45 22v4a3 3 0 003 3" stroke="#059669" stroke-width="2" stroke-linecap="round"/></svg>
